<?xml version="1.0" encoding="UTF-8" standalone="no"?>
<!-- Created with Inkscape (http://www.inkscape.org/) -->
<svg xmlns:svg="http://www.w3.org/2000/svg" xmlns="http://www.w3.org/2000/svg" version="1.0" width="300" height="300" id="svg2440">
  <defs id="defs2443"/>
  <rect width="300" height="300" x="0" y="2.2467922e-15" id="rect3297" style="opacity:1;fill:#ffffff;fill-opacity:1;fill-rule:nonzero;stroke:none;stroke-width:2;stroke-linecap:square;stroke-linejoin:miter;marker:none;marker-start:none;marker-mid:none;marker-end:none;stroke-miterlimit:4;stroke-dasharray:11.99999998, 4;stroke-dashoffset:0;stroke-opacity:0.58796297;visibility:visible;display:inline;overflow:visible;enable-background:accumulate"/>
  <path d="M 140.75393,33.404914 L 250.07541,41.211392 L 199.62855,78.387337 L 140.75393,33.404914 z" id="path2443" style="fill:none;fill-rule:evenodd;stroke:#d45500;stroke-width:1px;stroke-linecap:butt;stroke-linejoin:miter;stroke-opacity:1"/>
  <path d="M 273.40325,128.68245 L 250.07541,41.211392 L 199.62855,78.387337 L 273.40325,128.68245 z" id="path2445" style="fill:none;fill-rule:evenodd;stroke:#d45500;stroke-width:1px;stroke-linecap:butt;stroke-linejoin:miter;stroke-opacity:1"/>
  <path d="M 273.40325,128.68245 L 199.89171,191.10566 L 237.8217,268.12104 L 273.40325,128.68245 z" id="path2449" style="fill:none;fill-rule:evenodd;stroke:#d45500;stroke-width:1px;stroke-linecap:butt;stroke-linejoin:miter;stroke-opacity:1"/>
  <path d="M 161.69856,224.78134 L 199.89171,191.10566 L 237.8217,268.12104 L 161.69856,224.78134 z" id="path2452" style="fill:none;fill-rule:evenodd;stroke:#d45500;stroke-width:1px;stroke-linecap:butt;stroke-linejoin:miter;stroke-opacity:1"/>
  <path d="M 161.69856,224.78134 L 86.625162,260.1033 L 237.8217,268.12104 L 161.69856,224.78134 z" id="path2454" style="fill:none;fill-rule:evenodd;stroke:#d45602;stroke-width:1px;stroke-linecap:butt;stroke-linejoin:miter;stroke-opacity:1"/>
  <path d="M 161.69856,224.78134 L 86.625162,260.1033 L 83.81707,163.39789 L 161.69856,224.78134 z" id="path2456" style="fill:none;fill-rule:evenodd;stroke:#d45500;stroke-width:1px;stroke-linecap:butt;stroke-linejoin:miter;stroke-opacity:1"/>
  <path d="M 38.905535,221.49591 L 86.625162,260.1033 L 83.81707,163.39789 L 38.905535,221.49591 z" id="path2464" style="fill:none;fill-rule:evenodd;stroke:#d45500;stroke-width:1px;stroke-linecap:butt;stroke-linejoin:miter;stroke-opacity:1"/>
  <path d="M 38.905535,221.49591 L 34.879606,107.33071 L 83.81707,163.39789 L 38.905535,221.49591 z" id="path2466" style="fill:none;fill-rule:evenodd;stroke:#d45500;stroke-width:1px;stroke-linecap:butt;stroke-linejoin:miter;stroke-opacity:1"/>
  <path d="M 107.89961,85.971835 L 34.879606,107.33071 L 83.81707,163.39789 L 107.89961,85.971835 z" id="path2468" style="fill:none;fill-rule:evenodd;stroke:#d45500;stroke-width:1px;stroke-linecap:butt;stroke-linejoin:miter;stroke-opacity:1"/>
  <path d="M 107.89961,85.971835 L 34.879606,107.33071 L 55.890897,35.266038 L 107.89961,85.971835 z" id="path2470" style="fill:none;fill-rule:evenodd;stroke:#d45500;stroke-width:1px;stroke-linecap:butt;stroke-linejoin:miter;stroke-opacity:1"/>
  <path d="M 107.89961,85.971835 L 140.83479,33.819166 L 199.62855,78.387334 L 107.89961,85.971835 z" id="path2474" style="fill:none;fill-rule:evenodd;stroke:#d45500;stroke-width:1px;stroke-linecap:butt;stroke-linejoin:miter;stroke-opacity:1"/>
  <path d="M 107.89961,85.971835 L 175.41269,175.50699 L 199.62855,78.387334 L 107.89961,85.971835 z" id="path2476" style="fill:none;fill-rule:evenodd;stroke:#d45500;stroke-width:1px;stroke-linecap:butt;stroke-linejoin:miter;stroke-opacity:1"/>
  <path d="M 199.89171,191.10566 L 175.33183,175.9141 L 199.62855,78.387334 L 199.89171,191.10566 z" id="path2478" style="fill:none;fill-rule:evenodd;stroke:#d45602;stroke-width:1px;stroke-linecap:butt;stroke-linejoin:miter;stroke-opacity:1"/>
  <path d="M 83.25887,163.17949 L 175.33183,175.9141 L 161.84608,224.58906 L 83.25887,163.17949 z" id="path2482" style="fill:none;fill-rule:evenodd;stroke:#d45500;stroke-width:1px;stroke-linecap:butt;stroke-linejoin:miter;stroke-opacity:1"/>
  <path d="M 273.32239,129.08956 L 199.89171,191.10566 L 199.62855,78.387337 L 273.32239,129.08956 z" id="path2447" style="fill:none;fill-rule:evenodd;stroke:#d45500;stroke-width:1px;stroke-linecap:butt;stroke-linejoin:miter;stroke-opacity:1"/>
  <path d="M 107.89961,85.971835 L 140.83479,33.819166 L 55.890897,35.266038 L 107.89961,85.971835 z" id="path2472" style="fill:none;fill-rule:evenodd;stroke:#d45500;stroke-width:1px;stroke-linecap:butt;stroke-linejoin:miter;stroke-opacity:1"/>
  <path d="M 199.89171,191.10566 L 175.41269,175.50699 L 161.84608,224.58906 L 199.89171,191.10566 z" id="path2480" style="fill:none;fill-rule:evenodd;stroke:#d45602;stroke-width:1px;stroke-linecap:butt;stroke-linejoin:miter;stroke-opacity:1"/>
  <path d="M 86.149867,163.95639 C 86.150472,165.61015 84.810003,166.95111 83.156243,166.95111 C 81.502482,166.95111 80.162013,165.61015 80.162618,163.95639 C 80.162013,162.30263 81.502482,160.96167 83.156243,160.96167 C 84.810003,160.96167 86.150472,162.30263 86.149867,163.95639 z" transform="matrix(1.0021296,0,0,1.0021296,-48.401331,-56.236542)" id="path3223" style="opacity:1;fill:#000000;fill-opacity:1;fill-rule:nonzero;stroke:none;stroke-width:2;stroke-linecap:square;stroke-linejoin:miter;marker:none;marker-start:none;marker-mid:none;marker-end:none;stroke-miterlimit:4;stroke-dasharray:12, 4;stroke-dashoffset:0;stroke-opacity:0.58796297;visibility:visible;display:inline;overflow:visible;enable-background:accumulate"/>
  <path d="M 86.149867,163.95639 C 86.150472,165.61015 84.810003,166.95111 83.156243,166.95111 C 81.502482,166.95111 80.162013,165.61015 80.162618,163.95639 C 80.162013,162.30263 81.502482,160.96167 83.156243,160.96167 C 84.810003,160.96167 86.150472,162.30263 86.149867,163.95639 z" transform="matrix(1.0021296,0,0,1.0021296,166.80702,-123.09416)" id="path3233" style="opacity:1;fill:#000000;fill-opacity:1;fill-rule:nonzero;stroke:none;stroke-width:2;stroke-linecap:square;stroke-linejoin:miter;marker:none;marker-start:none;marker-mid:none;marker-end:none;stroke-miterlimit:4;stroke-dasharray:12, 4;stroke-dashoffset:0;stroke-opacity:0.58796297;visibility:visible;display:inline;overflow:visible;enable-background:accumulate"/>
  <path d="M 86.149867,163.95639 C 86.150472,165.61015 84.810003,166.95111 83.156243,166.95111 C 81.502482,166.95111 80.162013,165.61015 80.162618,163.95639 C 80.162013,162.30263 81.502482,160.96167 83.156243,160.96167 C 84.810003,160.96167 86.150472,162.30263 86.149867,163.95639 z" transform="matrix(1.0021296,0,0,1.0021296,190.09077,-35.613797)" id="path3235" style="opacity:1;fill:#000000;fill-opacity:1;fill-rule:nonzero;stroke:none;stroke-width:2;stroke-linecap:square;stroke-linejoin:miter;marker:none;marker-start:none;marker-mid:none;marker-end:none;stroke-miterlimit:4;stroke-dasharray:12, 4;stroke-dashoffset:0;stroke-opacity:0.58796297;visibility:visible;display:inline;overflow:visible;enable-background:accumulate"/>
  <path d="M 86.149867,163.95639 C 86.150472,165.61015 84.810003,166.95111 83.156243,166.95111 C 81.502482,166.95111 80.162013,165.61015 80.162618,163.95639 C 80.162013,162.30263 81.502482,160.96167 83.156243,160.96167 C 84.810003,160.96167 86.150472,162.30263 86.149867,163.95639 z" transform="matrix(1.0021296,0,0,1.0021296,154.4999,103.75606)" id="path3243" style="opacity:1;fill:#000000;fill-opacity:1;fill-rule:nonzero;stroke:none;stroke-width:2;stroke-linecap:square;stroke-linejoin:miter;marker:none;marker-start:none;marker-mid:none;marker-end:none;stroke-miterlimit:4;stroke-dasharray:12, 4;stroke-dashoffset:0;stroke-opacity:0.58796297;visibility:visible;display:inline;overflow:visible;enable-background:accumulate"/>
  <path d="M 86.149867,163.95639 C 86.150472,165.61015 84.810003,166.95111 83.156243,166.95111 C 81.502482,166.95111 80.162013,165.61015 80.162618,163.95639 C 80.162013,162.30263 81.502482,160.96167 83.156243,160.96167 C 84.810003,160.96167 86.150472,162.30263 86.149867,163.95639 z" transform="matrix(1.0021296,0,0,1.0021296,3.8207957,95.773061)" id="path3245" style="opacity:1;fill:#000000;fill-opacity:1;fill-rule:nonzero;stroke:none;stroke-width:2;stroke-linecap:square;stroke-linejoin:miter;marker:none;marker-start:none;marker-mid:none;marker-end:none;stroke-miterlimit:4;stroke-dasharray:12, 4;stroke-dashoffset:0;stroke-opacity:0.58796297;visibility:visible;display:inline;overflow:visible;enable-background:accumulate"/>
  <path d="M 86.149867,163.95639 C 86.150472,165.61015 84.810003,166.95111 83.156243,166.95111 C 81.502482,166.95111 80.162013,165.61015 80.162618,163.95639 C 80.162013,162.30263 81.502482,160.96167 83.156243,160.96167 C 84.810003,160.96167 86.150472,162.30263 86.149867,163.95639 z" transform="matrix(1.0021296,0,0,1.0021296,-43.744573,57.521191)" id="path3247" style="opacity:1;fill:#000000;fill-opacity:1;fill-rule:nonzero;stroke:none;stroke-width:2;stroke-linecap:square;stroke-linejoin:miter;marker:none;marker-start:none;marker-mid:none;marker-end:none;stroke-miterlimit:4;stroke-dasharray:12, 4;stroke-dashoffset:0;stroke-opacity:0.58796297;visibility:visible;display:inline;overflow:visible;enable-background:accumulate"/>
  <path d="M 86.149867,163.95639 C 86.150472,165.61015 84.810003,166.95111 83.156243,166.95111 C 81.502482,166.95111 80.162013,165.61015 80.162618,163.95639 C 80.162013,162.30263 81.502482,160.96167 83.156243,160.96167 C 84.810003,160.96167 86.150472,162.30263 86.149867,163.95639 z" transform="matrix(1.0021296,0,0,1.0021296,78.661415,60.514815)" id="path3241" style="opacity:1;fill:#000000;fill-opacity:1;fill-rule:nonzero;stroke:none;stroke-width:2;stroke-linecap:square;stroke-linejoin:miter;marker:none;marker-start:none;marker-mid:none;marker-end:none;stroke-miterlimit:4;stroke-dasharray:12, 4;stroke-dashoffset:0;stroke-opacity:0.58796297;visibility:visible;display:inline;overflow:visible;enable-background:accumulate"/>
  <path d="M 86.149867,163.95639 C 86.150472,165.61015 84.810003,166.95111 83.156243,166.95111 C 81.502482,166.95111 80.162013,165.61015 80.162618,163.95639 C 80.162013,162.30263 81.502482,160.96167 83.156243,160.96167 C 84.810003,160.96167 86.150472,162.30263 86.149867,163.95639 z" transform="matrix(1.0021296,0,0,1.0021296,-27.113334,-128.74878)" id="path3227" style="opacity:1;fill:#000000;fill-opacity:1;fill-rule:nonzero;stroke:none;stroke-width:2;stroke-linecap:square;stroke-linejoin:miter;marker:none;marker-start:none;marker-mid:none;marker-end:none;stroke-miterlimit:4;stroke-dasharray:12, 4;stroke-dashoffset:0;stroke-opacity:0.58796297;visibility:visible;display:inline;overflow:visible;enable-background:accumulate"/>
  <path d="M 86.149867,163.95639 C 86.150472,165.61015 84.810003,166.95111 83.156243,166.95111 C 81.502482,166.95111 80.162013,165.61015 80.162618,163.95639 C 80.162013,162.30263 81.502482,160.96167 83.156243,160.96167 C 84.810003,160.96167 86.150472,162.30263 86.149867,163.95639 z" transform="matrix(1.0021296,0,0,1.0021296,57.706029,-130.07928)" id="path3229" style="opacity:1;fill:#000000;fill-opacity:1;fill-rule:nonzero;stroke:none;stroke-width:2;stroke-linecap:square;stroke-linejoin:miter;marker:none;marker-start:none;marker-mid:none;marker-end:none;stroke-miterlimit:4;stroke-dasharray:12, 4;stroke-dashoffset:0;stroke-opacity:0.58796297;visibility:visible;display:inline;overflow:visible;enable-background:accumulate"/>
  <path d="M 86.149867,163.95639 C 86.150472,165.61015 84.810003,166.95111 83.156243,166.95111 C 81.502482,166.95111 80.162013,165.61015 80.162618,163.95639 C 80.162013,162.30263 81.502482,160.96167 83.156243,160.96167 C 84.810003,160.96167 86.150472,162.30263 86.149867,163.95639 z" transform="matrix(1.0021296,0,0,1.0021296,0.8271622,-0.6881749)" id="path2451" style="opacity:1;fill:#000000;fill-opacity:1;fill-rule:nonzero;stroke:none;stroke-width:2;stroke-linecap:square;stroke-linejoin:miter;marker:none;marker-start:none;marker-mid:none;marker-end:none;stroke-miterlimit:4;stroke-dasharray:12, 4;stroke-dashoffset:0;stroke-opacity:0.58796297;visibility:visible;display:inline;overflow:visible;enable-background:accumulate"/>
  <path d="M 86.149867,163.95639 C 86.150472,165.61015 84.810003,166.95111 83.156243,166.95111 C 81.502482,166.95111 80.162013,165.61015 80.162618,163.95639 C 80.162013,162.30263 81.502482,160.96167 83.156243,160.96167 C 84.810003,160.96167 86.150472,162.30263 86.149867,163.95639 z" transform="matrix(1.0021296,0,0,1.0021296,116.58065,-85.507536)" id="path3231" style="opacity:1;fill:#000000;fill-opacity:1;fill-rule:nonzero;stroke:none;stroke-width:2;stroke-linecap:square;stroke-linejoin:miter;marker:none;marker-start:none;marker-mid:none;marker-end:none;stroke-miterlimit:4;stroke-dasharray:12, 4;stroke-dashoffset:0;stroke-opacity:0.58796297;visibility:visible;display:inline;overflow:visible;enable-background:accumulate"/>
  <path d="M 86.149867,163.95639 C 86.150472,165.61015 84.810003,166.95111 83.156243,166.95111 C 81.502482,166.95111 80.162013,165.61015 80.162618,163.95639 C 80.162013,162.30263 81.502482,160.96167 83.156243,160.96167 C 84.810003,160.96167 86.150472,162.30263 86.149867,163.95639 z" transform="matrix(1.0021296,0,0,1.0021296,116.58066,26.58707)" id="path3239" style="opacity:1;fill:#000000;fill-opacity:1;fill-rule:nonzero;stroke:none;stroke-width:2;stroke-linecap:square;stroke-linejoin:miter;marker:none;marker-start:none;marker-mid:none;marker-end:none;stroke-miterlimit:4;stroke-dasharray:12, 4;stroke-dashoffset:0;stroke-opacity:0.58796297;visibility:visible;display:inline;overflow:visible;enable-background:accumulate"/>
  <path d="M 86.149867,163.95639 C 86.150472,165.61015 84.810003,166.95111 83.156243,166.95111 C 81.502482,166.95111 80.162013,165.61015 80.162618,163.95639 C 80.162013,162.30263 81.502482,160.96167 83.156243,160.96167 C 84.810003,160.96167 86.150472,162.30263 86.149867,163.95639 z" transform="matrix(1.0021296,0,0,1.0021296,24.776159,-78.189789)" id="path3225" style="opacity:1;fill:#000000;fill-opacity:1;fill-rule:nonzero;stroke:none;stroke-width:2;stroke-linecap:square;stroke-linejoin:miter;marker:none;marker-start:none;marker-mid:none;marker-end:none;stroke-miterlimit:4;stroke-dasharray:12, 4;stroke-dashoffset:0;stroke-opacity:0.58796297;visibility:visible;display:inline;overflow:visible;enable-background:accumulate"/>
  <path d="M 86.149867,163.95639 C 86.150472,165.61015 84.810003,166.95111 83.156243,166.95111 C 81.502482,166.95111 80.162013,165.61015 80.162618,163.95639 C 80.162013,162.30263 81.502482,160.96167 83.156243,160.96167 C 84.810003,160.96167 86.150472,162.30263 86.149867,163.95639 z" transform="matrix(1.0021296,0,0,1.0021296,91.633784,11.618947)" id="path3237" style="opacity:1;fill:#000000;fill-opacity:1;fill-rule:nonzero;stroke:none;stroke-width:2;stroke-linecap:square;stroke-linejoin:miter;marker:none;marker-start:none;marker-mid:none;marker-end:none;stroke-miterlimit:4;stroke-dasharray:12, 4;stroke-dashoffset:0;stroke-opacity:0.58796297;visibility:visible;display:inline;overflow:visible;enable-background:accumulate"/>
</svg>