<?xml version="1.0" encoding="UTF-8" standalone="no"?>
<!-- Created with Inkscape (http://www.inkscape.org/) -->
<svg xmlns:svg="http://www.w3.org/2000/svg" xmlns="http://www.w3.org/2000/svg" version="1.0" width="300" height="300" id="svg2440">
  <defs id="defs2443"/>
  <rect width="300" height="300" x="0" y="2.2467922e-15" id="rect3297" style="opacity:1;fill:#ffffff;fill-opacity:1;fill-rule:nonzero;stroke:none;stroke-width:2;stroke-linecap:square;stroke-linejoin:miter;marker:none;marker-start:none;marker-mid:none;marker-end:none;stroke-miterlimit:4;stroke-dasharray:11.99999998, 4;stroke-dashoffset:0;stroke-opacity:0.58796297;visibility:visible;display:inline;overflow:visible;enable-background:accumulate"/>
  <path d="M 15.300748,300 L 85.817238,210.85651 L 109.43361,210.85651 L 152,300" id="path3249" style="fill:none;fill-rule:evenodd;stroke:#d45500;stroke-width:1px;stroke-linecap:butt;stroke-linejoin:miter;stroke-opacity:1"/>
  <path d="M 78.83211,119.71728 L 26.609996,165.61951 L 85.817238,210.85651 L 109.43361,210.85651 L 127.08854,189.01759 L 133.25572,136.16646 L 78.83211,119.71728 z" id="path3251" style="fill:none;fill-rule:evenodd;stroke:#d45500;stroke-width:1px;stroke-linecap:butt;stroke-linejoin:miter;stroke-opacity:1"/>
  <path d="M 169.3061,300 L 205.89485,235.80338 L 176.79938,202.15043 L 127.08854,189.01759 L 109.43361,210.85651 L 152,300" id="path3253" style="fill:none;fill-rule:evenodd;stroke:#d45500;stroke-width:1px;stroke-linecap:butt;stroke-linejoin:miter;stroke-opacity:1"/>
  <path d="M 133.25572,136.16646 L 157.3316,119.38464 L 216.87147,134.35277 L 176.79938,202.15043 L 127.08854,189.01759 L 133.25572,136.16646 L 133.25572,136.16646 z" id="path3255" style="fill:none;fill-rule:evenodd;stroke:#d45500;stroke-width:1px;stroke-linecap:butt;stroke-linejoin:miter;stroke-opacity:1"/>
  <path d="M 0,57.849033 L 65.394186,77.975197 L 78.83211,119.71728 L 26.609996,165.61951 L 0.33262084,165.61952" id="path3259" style="fill:none;fill-rule:evenodd;stroke:#d45500;stroke-width:1px;stroke-linecap:butt;stroke-linejoin:miter;stroke-opacity:1"/>
  <path d="M 15.300748,300 L 85.817238,210.85651 L 26.609996,165.61951 L 0,165.61952" id="path3257" style="fill:none;fill-rule:evenodd;stroke:#d45500;stroke-width:1px;stroke-linecap:butt;stroke-linejoin:miter;stroke-opacity:1"/>
  <path d="M 0,57.849033 L 65.394186,77.975197 L 98.124357,43.87879 L 98.124361,-0.02771724" id="path3261" style="fill:none;fill-rule:evenodd;stroke:#d45500;stroke-width:1px;stroke-linecap:butt;stroke-linejoin:miter;stroke-opacity:1"/>
  <path d="M 197.2466,0 L 196.99246,22.528648 L 153.5398,78.973072 L 98.124357,43.87879 L 98.124361,0" id="path3263" style="fill:none;fill-rule:evenodd;stroke:#d45500;stroke-width:1px;stroke-linecap:butt;stroke-linejoin:miter;stroke-opacity:1"/>
  <path d="M 78.83211,119.71728 L 65.394186,77.975197 L 98.124357,43.87879 L 153.5398,78.973072 L 157.3316,119.38464 L 133.25572,136.16646 L 78.83211,119.71728 z" id="path3265" style="fill:none;fill-rule:evenodd;stroke:#d45500;stroke-width:1px;stroke-linecap:butt;stroke-linejoin:miter;stroke-opacity:1"/>
  <path d="M 246.80771,88.117909 L 196.99246,22.528648 L 153.5398,78.973072 L 157.3316,119.38464 L 216.87147,134.35277 L 246.80771,88.117909 z" id="path3267" style="fill:none;fill-rule:evenodd;stroke:#d45500;stroke-width:1px;stroke-linecap:butt;stroke-linejoin:miter;stroke-opacity:1"/>
  <path d="M 197.2466,0.97016582 L 196.99246,22.528648 L 246.80771,88.117909 L 300,75.145536" id="path3269" style="fill:none;fill-rule:evenodd;stroke:#d45500;stroke-width:1px;stroke-linecap:butt;stroke-linejoin:miter;stroke-opacity:1"/>
  <path d="M 300.02771,210.19126 L 272.61467,202.02672 L 216.87147,134.35277 L 246.80771,88.117909 L 300,75.145536" id="path3271" style="fill:none;fill-rule:evenodd;stroke:#d45500;stroke-width:1px;stroke-linecap:butt;stroke-linejoin:miter;stroke-opacity:1"/>
  <path d="M 205.89485,235.80338 L 272.61467,202.02672 L 216.87147,134.35277 L 176.79938,202.15043 L 205.89485,235.80338 z" id="path3273" style="fill:none;fill-rule:evenodd;stroke:#d45500;stroke-width:1px;stroke-linecap:butt;stroke-linejoin:miter;stroke-opacity:1"/>
  <path d="M 169.3061,300 L 205.89485,235.80338 L 272.61467,202.02672 L 300,210.19126" id="path3275" style="fill:none;fill-rule:evenodd;stroke:#d45500;stroke-width:1px;stroke-linecap:butt;stroke-linejoin:miter;stroke-opacity:1"/>
  <path d="M 86.149867,163.95639 A 2.9936247,2.9936247 0 1 1 80.162618,163.95639 A 2.9936247,2.9936247 0 1 1 86.149867,163.95639 z" transform="matrix(1.0021296,0,0,1.0021296,0.8271622,-0.6881749)" id="path2451" style="opacity:1;fill:#000000;fill-opacity:1;fill-rule:nonzero;stroke:none;stroke-width:2;stroke-linecap:square;stroke-linejoin:miter;marker:none;marker-start:none;marker-mid:none;marker-end:none;stroke-miterlimit:4;stroke-dasharray:12, 4;stroke-dashoffset:0;stroke-opacity:0.58796297;visibility:visible;display:inline;overflow:visible;enable-background:accumulate"/>
  <path d="M 86.149867,163.95639 A 2.9936247,2.9936247 0 1 1 80.162618,163.95639 A 2.9936247,2.9936247 0 1 1 86.149867,163.95639 z" transform="matrix(1.0021296,0,0,1.0021296,-48.401331,-56.236542)" id="path3223" style="opacity:1;fill:#000000;fill-opacity:1;fill-rule:nonzero;stroke:none;stroke-width:2;stroke-linecap:square;stroke-linejoin:miter;marker:none;marker-start:none;marker-mid:none;marker-end:none;stroke-miterlimit:4;stroke-dasharray:12, 4;stroke-dashoffset:0;stroke-opacity:0.58796297;visibility:visible;display:inline;overflow:visible;enable-background:accumulate"/>
  <path d="M 86.149867,163.95639 A 2.9936247,2.9936247 0 1 1 80.162618,163.95639 A 2.9936247,2.9936247 0 1 1 86.149867,163.95639 z" transform="matrix(1.0021296,0,0,1.0021296,24.776159,-78.189789)" id="path3225" style="opacity:1;fill:#000000;fill-opacity:1;fill-rule:nonzero;stroke:none;stroke-width:2;stroke-linecap:square;stroke-linejoin:miter;marker:none;marker-start:none;marker-mid:none;marker-end:none;stroke-miterlimit:4;stroke-dasharray:12, 4;stroke-dashoffset:0;stroke-opacity:0.58796297;visibility:visible;display:inline;overflow:visible;enable-background:accumulate"/>
  <path d="M 86.149867,163.95639 A 2.9936247,2.9936247 0 1 1 80.162618,163.95639 A 2.9936247,2.9936247 0 1 1 86.149867,163.95639 z" transform="matrix(1.0021296,0,0,1.0021296,-27.113334,-128.74878)" id="path3227" style="opacity:1;fill:#000000;fill-opacity:1;fill-rule:nonzero;stroke:none;stroke-width:2;stroke-linecap:square;stroke-linejoin:miter;marker:none;marker-start:none;marker-mid:none;marker-end:none;stroke-miterlimit:4;stroke-dasharray:12, 4;stroke-dashoffset:0;stroke-opacity:0.58796297;visibility:visible;display:inline;overflow:visible;enable-background:accumulate"/>
  <path d="M 86.149867,163.95639 A 2.9936247,2.9936247 0 1 1 80.162618,163.95639 A 2.9936247,2.9936247 0 1 1 86.149867,163.95639 z" transform="matrix(1.0021296,0,0,1.0021296,57.706029,-130.07928)" id="path3229" style="opacity:1;fill:#000000;fill-opacity:1;fill-rule:nonzero;stroke:none;stroke-width:2;stroke-linecap:square;stroke-linejoin:miter;marker:none;marker-start:none;marker-mid:none;marker-end:none;stroke-miterlimit:4;stroke-dasharray:12, 4;stroke-dashoffset:0;stroke-opacity:0.58796297;visibility:visible;display:inline;overflow:visible;enable-background:accumulate"/>
  <path d="M 86.149867,163.95639 A 2.9936247,2.9936247 0 1 1 80.162618,163.95639 A 2.9936247,2.9936247 0 1 1 86.149867,163.95639 z" transform="matrix(1.0021296,0,0,1.0021296,116.58065,-85.507536)" id="path3231" style="opacity:1;fill:#000000;fill-opacity:1;fill-rule:nonzero;stroke:none;stroke-width:2;stroke-linecap:square;stroke-linejoin:miter;marker:none;marker-start:none;marker-mid:none;marker-end:none;stroke-miterlimit:4;stroke-dasharray:12, 4;stroke-dashoffset:0;stroke-opacity:0.58796297;visibility:visible;display:inline;overflow:visible;enable-background:accumulate"/>
  <path d="M 86.149867,163.95639 A 2.9936247,2.9936247 0 1 1 80.162618,163.95639 A 2.9936247,2.9936247 0 1 1 86.149867,163.95639 z" transform="matrix(1.0021296,0,0,1.0021296,166.80702,-123.09416)" id="path3233" style="opacity:1;fill:#000000;fill-opacity:1;fill-rule:nonzero;stroke:none;stroke-width:2;stroke-linecap:square;stroke-linejoin:miter;marker:none;marker-start:none;marker-mid:none;marker-end:none;stroke-miterlimit:4;stroke-dasharray:12, 4;stroke-dashoffset:0;stroke-opacity:0.58796297;visibility:visible;display:inline;overflow:visible;enable-background:accumulate"/>
  <path d="M 86.149867,163.95639 A 2.9936247,2.9936247 0 1 1 80.162618,163.95639 A 2.9936247,2.9936247 0 1 1 86.149867,163.95639 z" transform="matrix(1.0021296,0,0,1.0021296,190.09077,-35.613797)" id="path3235" style="opacity:1;fill:#000000;fill-opacity:1;fill-rule:nonzero;stroke:none;stroke-width:2;stroke-linecap:square;stroke-linejoin:miter;marker:none;marker-start:none;marker-mid:none;marker-end:none;stroke-miterlimit:4;stroke-dasharray:12, 4;stroke-dashoffset:0;stroke-opacity:0.58796297;visibility:visible;display:inline;overflow:visible;enable-background:accumulate"/>
  <path d="M 86.149867,163.95639 A 2.9936247,2.9936247 0 1 1 80.162618,163.95639 A 2.9936247,2.9936247 0 1 1 86.149867,163.95639 z" transform="matrix(1.0021296,0,0,1.0021296,91.633784,11.618947)" id="path3237" style="opacity:1;fill:#000000;fill-opacity:1;fill-rule:nonzero;stroke:none;stroke-width:2;stroke-linecap:square;stroke-linejoin:miter;marker:none;marker-start:none;marker-mid:none;marker-end:none;stroke-miterlimit:4;stroke-dasharray:12, 4;stroke-dashoffset:0;stroke-opacity:0.58796297;visibility:visible;display:inline;overflow:visible;enable-background:accumulate"/>
  <path d="M 86.149867,163.95639 A 2.9936247,2.9936247 0 1 1 80.162618,163.95639 A 2.9936247,2.9936247 0 1 1 86.149867,163.95639 z" transform="matrix(1.0021296,0,0,1.0021296,116.58066,26.58707)" id="path3239" style="opacity:1;fill:#000000;fill-opacity:1;fill-rule:nonzero;stroke:none;stroke-width:2;stroke-linecap:square;stroke-linejoin:miter;marker:none;marker-start:none;marker-mid:none;marker-end:none;stroke-miterlimit:4;stroke-dasharray:12, 4;stroke-dashoffset:0;stroke-opacity:0.58796297;visibility:visible;display:inline;overflow:visible;enable-background:accumulate"/>
  <path d="M 86.149867,163.95639 A 2.9936247,2.9936247 0 1 1 80.162618,163.95639 A 2.9936247,2.9936247 0 1 1 86.149867,163.95639 z" transform="matrix(1.0021296,0,0,1.0021296,78.661415,60.514815)" id="path3241" style="opacity:1;fill:#000000;fill-opacity:1;fill-rule:nonzero;stroke:none;stroke-width:2;stroke-linecap:square;stroke-linejoin:miter;marker:none;marker-start:none;marker-mid:none;marker-end:none;stroke-miterlimit:4;stroke-dasharray:12, 4;stroke-dashoffset:0;stroke-opacity:0.58796297;visibility:visible;display:inline;overflow:visible;enable-background:accumulate"/>
  <path d="M 86.149867,163.95639 A 2.9936247,2.9936247 0 1 1 80.162618,163.95639 A 2.9936247,2.9936247 0 1 1 86.149867,163.95639 z" transform="matrix(1.0021296,0,0,1.0021296,154.4999,103.75606)" id="path3243" style="opacity:1;fill:#000000;fill-opacity:1;fill-rule:nonzero;stroke:none;stroke-width:2;stroke-linecap:square;stroke-linejoin:miter;marker:none;marker-start:none;marker-mid:none;marker-end:none;stroke-miterlimit:4;stroke-dasharray:12, 4;stroke-dashoffset:0;stroke-opacity:0.58796297;visibility:visible;display:inline;overflow:visible;enable-background:accumulate"/>
  <path d="M 86.149867,163.95639 A 2.9936247,2.9936247 0 1 1 80.162618,163.95639 A 2.9936247,2.9936247 0 1 1 86.149867,163.95639 z" transform="matrix(1.0021296,0,0,1.0021296,3.8207957,95.773061)" id="path3245" style="opacity:1;fill:#000000;fill-opacity:1;fill-rule:nonzero;stroke:none;stroke-width:2;stroke-linecap:square;stroke-linejoin:miter;marker:none;marker-start:none;marker-mid:none;marker-end:none;stroke-miterlimit:4;stroke-dasharray:12, 4;stroke-dashoffset:0;stroke-opacity:0.58796297;visibility:visible;display:inline;overflow:visible;enable-background:accumulate"/>
  <path d="M 86.149867,163.95639 A 2.9936247,2.9936247 0 1 1 80.162618,163.95639 A 2.9936247,2.9936247 0 1 1 86.149867,163.95639 z" transform="matrix(1.0021296,0,0,1.0021296,-43.744573,57.521191)" id="path3247" style="opacity:1;fill:#000000;fill-opacity:1;fill-rule:nonzero;stroke:none;stroke-width:2;stroke-linecap:square;stroke-linejoin:miter;marker:none;marker-start:none;marker-mid:none;marker-end:none;stroke-miterlimit:4;stroke-dasharray:12, 4;stroke-dashoffset:0;stroke-opacity:0.58796297;visibility:visible;display:inline;overflow:visible;enable-background:accumulate"/>
</svg>